<svg id="レイヤー_1" data-name="レイヤー 1" xmlns="http://www.w3.org/2000/svg" viewBox="0 0 941 81.99"><defs><style>.cls-1{fill:#f7931e;}</style></defs><path class="cls-1" d="M41.86,100.53a16.67,16.67,0,0,0-.6-4.52,9.2,9.2,0,0,0-2-3.74,10.44,10.44,0,0,0-3.8-2.62,15.31,15.31,0,0,0-5.94-1V85.79q9.86.7,19.49.71,5.34,0,10.75-.24l10.75-.47v2.85a16.52,16.52,0,0,0-6.24,1,10.24,10.24,0,0,0-3.85,2.62,9.22,9.22,0,0,0-2,3.74,16.67,16.67,0,0,0-.59,4.52v24q.94-.72,3.38-2.8c1.63-1.38,3.47-3,5.53-4.87s4.22-3.84,6.48-5.94,4.32-4.16,6.17-6.18A62.51,62.51,0,0,0,84,99.16c1.22-1.7,1.84-3.07,1.84-4.1A4.21,4.21,0,0,0,85,92.51a8.33,8.33,0,0,0-2.08-2,11.27,11.27,0,0,0-2.68-1.3,12.07,12.07,0,0,0-2.61-.6V85.79a82.51,82.51,0,0,0,9.27.65q4.64.06,9.39.06c3.32,0,6.53,0,9.62-.12s6.3-.27,9.63-.59v2.85A32.39,32.39,0,0,0,104.3,92a62,62,0,0,0-9.81,6.3c-3.09,2.41-6.07,5-9,7.72s-5.84,5.29-8.85,7.67L101,148.65c1.26,1.82,2.51,3.47,3.74,4.93a24.07,24.07,0,0,0,4,3.8,19.56,19.56,0,0,0,4.76,2.61,23.54,23.54,0,0,0,6.17,1.37v2.85c-3.56-.16-7.15-.27-10.75-.35s-7.19-.12-10.75-.12-7.09,0-10.58.12-7,.19-10.57.35v-2.37q.94-.24,2.61-.6a15.83,15.83,0,0,0,3.27-1.07,11.6,11.6,0,0,0,2.8-1.72,3.22,3.22,0,0,0,1.18-2.55,9.07,9.07,0,0,0-1.37-3.27c-.91-1.62-2.07-3.53-3.5-5.71s-3-4.51-4.69-7-3.38-4.87-5-7.13l-4.33-6q-1.91-2.61-2.74-3.8l-7.48,5.94v20.32a32.88,32.88,0,0,0,.35,5A7.54,7.54,0,0,0,59.74,158a8,8,0,0,0,3.74,2.31,26.38,26.38,0,0,0,6.77,1.07v2.85c-3.64-.16-7.24-.27-10.81-.35s-7.13-.12-10.69-.12q-4.87,0-9.62.12c-3.18.08-6.38.19-9.63.35v-2.85a25.41,25.41,0,0,0,6.71-1.07A8,8,0,0,0,39.89,158a7.45,7.45,0,0,0,1.61-3.69,31.58,31.58,0,0,0,.36-5Z" transform="translate(-29.5 -84)"/><path d="M127.49,162.19a17.81,17.81,0,0,0,5.53-1.37,11,11,0,0,0,3.68-2.67,18.13,18.13,0,0,0,2.61-3.86q1.14-2.21,2.32-5l23.29-54.3-2.14-5.7c2.53-.48,5-1,7.49-1.73A48.6,48.6,0,0,0,177.39,85l25.79,70a9.65,9.65,0,0,0,5,5.53,16.48,16.48,0,0,0,7.25,1.72V165c-1.51-.08-3.21-.16-5.11-.23s-3.8-.15-5.7-.19-3.8-.05-5.71-.05h-5c-3.33,0-6.63,0-9.92.12s-6.6.19-9.92.35v-2.85q6.18-.48,9.15-2a5,5,0,0,0,3-4.64,11.66,11.66,0,0,0-.42-2.72,33.75,33.75,0,0,0-1.06-3.39c-.44-1.15-.88-2.3-1.31-3.45l-1.13-2.91-4-11.76H154.58l-6.06,16.75c-.4,1.11-.81,2.18-1.24,3.21a10.05,10.05,0,0,0-.66,3.92,3.93,3.93,0,0,0,1,2.61,9,9,0,0,0,2.61,2.08,18.71,18.71,0,0,0,3.45,1.49,21.85,21.85,0,0,0,3.39.83V165c-2.54-.16-5.09-.27-7.67-.35s-5.13-.12-7.66-.12c-2.37,0-4.76,0-7.13.12s-4.75.19-7.13.35Zm49.07-35.41L166.82,99h-.24l-10.33,27.8Z" transform="translate(-29.5 -84)"/><path d="M237.72,111.21c-.08-.94-.11-2.09-.11-3.44v-4.15a85.28,85.28,0,0,1,.41-8.86,71.79,71.79,0,0,1,1.6-9c5.39.08,10.71.22,16,.42s10.59.29,16,.29c5.7,0,11.34,0,16.93-.12s11.23-.27,16.94-.59l1.3,2.85Q299,96.85,292,105.51T278.12,123.1Q271.36,132,264.7,141T251,158.86c1.58.16,3.19.3,4.82.42s3.22.18,4.81.18a90.66,90.66,0,0,0,13.78-1,45.22,45.22,0,0,0,12.06-3.56,32.62,32.62,0,0,0,9.8-7,31.32,31.32,0,0,0,6.78-11.17h3a114.67,114.67,0,0,1-4.21,14,111.81,111.81,0,0,1-6,13.43q-8.2-.24-16.16-.35t-16.16-.12q-8,0-15.92.12t-15.92.35l-2-2.5,56-71.64q-10.82,0-18.95.47A45.52,45.52,0,0,0,253,93.16a17.91,17.91,0,0,0-8.49,6.35c-2,2.81-3.17,6.72-3.57,11.7Z" transform="translate(-29.5 -84)"/><path d="M324.78,84.84q10.34.7,20.8.72t21-.72l-.36,2.85a34.17,34.17,0,0,0-6.95,1,7.44,7.44,0,0,0-3.8,2.2,7.88,7.88,0,0,0-1.61,4,50.61,50.61,0,0,0-.36,6.59v39.45a17.18,17.18,0,0,0,1.25,6.36,15.68,15.68,0,0,0,3.92,5.64,20,20,0,0,0,6.9,4,29.62,29.62,0,0,0,10.16,1.55,27.81,27.81,0,0,0,11.82-2.2A21,21,0,0,0,395,150.9a18.79,18.79,0,0,0,3.74-7,25.73,25.73,0,0,0,1.07-7V107.65a66.12,66.12,0,0,0-.59-9.74A14.61,14.61,0,0,0,397,91.85a8.34,8.34,0,0,0-4.15-3.21,20.27,20.27,0,0,0-6.78-1V84.84q2.75.24,6.84.47c2.73.16,5.6.25,8.61.25,2.46,0,4.89-.09,7.31-.25l7.19-.47v2.85a26.21,26.21,0,0,0-6.12,1,7,7,0,0,0-3.39,2.2,7.83,7.83,0,0,0-1.48,4,58.56,58.56,0,0,0-.3,6.59V134q0,14.85-8.38,23t-23.47,8.14a48.9,48.9,0,0,1-15.56-2.2,33.5,33.5,0,0,1-10.82-5.76,23.47,23.47,0,0,1-6.35-8,20.4,20.4,0,0,1-2.07-8.78v-39a40.4,40.4,0,0,0-.36-5.64,8.91,8.91,0,0,0-1.67-4.16,8.65,8.65,0,0,0-4-2.73,25.1,25.1,0,0,0-7.31-1.25Z" transform="translate(-29.5 -84)"/><path d="M434.18,160.88a35.84,35.84,0,0,0,6.78-1.07,7.13,7.13,0,0,0,3.74-2.25,8.16,8.16,0,0,0,1.6-4.1,47.45,47.45,0,0,0,.36-6.6V102.3a47.29,47.29,0,0,0-.36-6.59,8.16,8.16,0,0,0-1.6-4.1,7.23,7.23,0,0,0-3.8-2.26A39.37,39.37,0,0,0,434,88.28V85.43l7.55.72q3.74.34,7.54.35,7.36,0,15.32-.59t18.9-.6A50.75,50.75,0,0,1,499.36,88a42.54,42.54,0,0,1,14.31,8,40,40,0,0,1,14.15,31.6,38,38,0,0,1-3.38,16.64,32.23,32.23,0,0,1-9.16,11.52A39.12,39.12,0,0,1,502,162.49a57.07,57.07,0,0,1-16,2.2c-3.25,0-6.06-.05-8.44-.12s-4.73-.18-7.06-.3-4.81-.24-7.43-.35-5.79-.18-9.51-.18c-4.2,0-7.84,0-10.93.11s-5.9.2-8.44.36Zm28.41-6.41a3.42,3.42,0,0,0,1.42,2.79,11.22,11.22,0,0,0,3.8,1.84,28,28,0,0,0,5.52,1c2.11.2,4.3.3,6.6.3a36.8,36.8,0,0,0,12.71-2.08,25.28,25.28,0,0,0,9.75-6.3,28,28,0,0,0,6.18-10.63,47.72,47.72,0,0,0,2.14-15.09,44.88,44.88,0,0,0-2.32-14.68A33.94,33.94,0,0,0,501.68,100a30.07,30.07,0,0,0-10.76-7.66,36.09,36.09,0,0,0-14.43-2.74,50.63,50.63,0,0,0-7,.48,54,54,0,0,0-6.89,1.42Z" transform="translate(-29.5 -84)"/><path d="M542.66,161.36a27.81,27.81,0,0,0,6.48-1,7.7,7.7,0,0,0,3.74-2.38,8.66,8.66,0,0,0,1.73-4.1,38.44,38.44,0,0,0,.41-6.06V102.66a36.64,36.64,0,0,0-.41-5.82,9.07,9.07,0,0,0-1.73-4.16,8.15,8.15,0,0,0-3.74-2.55,21.26,21.26,0,0,0-6.48-1V85.79l12.18.47q6.12.24,12.18.24,11.54,0,22.93-.24l23.29-.47c-.08,1.42-.11,2.85-.11,4.28v4.15c0,2.46,0,4.88.11,7.25a33.16,33.16,0,0,0,.83,6.54l-2.61.47q-2.85-9-9.09-13.6T584.25,90.3H570.94v28.88h6.19a23.74,23.74,0,0,0,6-.78,17.63,17.63,0,0,0,5.52-2.49,16.52,16.52,0,0,0,4.47-4.57,21.1,21.1,0,0,0,2.84-7h2.39q-.14,4.17-.31,8.44t-.17,8.44q0,4.27.17,8.49t.31,8.5H596a24.13,24.13,0,0,0-2.73-7.37,16.31,16.31,0,0,0-4.16-4.75,15.12,15.12,0,0,0-5.4-2.55,26.52,26.52,0,0,0-6.59-.78h-6.19V158a37.91,37.91,0,0,0,6.36,1.25,65.93,65.93,0,0,0,7.78.41,40.67,40.67,0,0,0,21-5.52Q615.5,148.65,622,137l2.26,1.66q-3,6.32-5.65,12.6a127.72,127.72,0,0,0-4.69,13q-9.29-.24-18.42-.35t-18.41-.12H566.07c-3.49,0-6.71,0-9.68,0s-5.63.1-8,.18-4.26.16-5.77.24Z" transform="translate(-29.5 -84)"/><path d="M697.34,109.31a26,26,0,0,0-3.86-8.19,33.26,33.26,0,0,0-6.18-6.66A29.36,29.36,0,0,0,679.63,90a22.53,22.53,0,0,0-8.43-1.67,14.82,14.82,0,0,0-9.09,2.79q-3.75,2.81-3.75,8.38a9.29,9.29,0,0,0,3.39,7.25,36.71,36.71,0,0,0,8.49,5.41q5.12,2.43,11,4.93a62.28,62.28,0,0,1,11,6,33,33,0,0,1,8.49,8.37,20.72,20.72,0,0,1,3.39,12.12,21,21,0,0,1-2,9.27,20,20,0,0,1-5.71,7.07,26.7,26.7,0,0,1-8.91,4.52A39.56,39.56,0,0,1,675.83,166a34,34,0,0,1-5.94-.54q-3-.54-5.88-1.19t-5.89-1.19a32.94,32.94,0,0,0-5.93-.53,6.38,6.38,0,0,0-1.25.17c-.52.12-1.07.26-1.67.42l-1.72.47a7.6,7.6,0,0,0-1.3.48q-1-6.65-2-13.43T641.49,137h2.61a30.66,30.66,0,0,0,4.28,8.67,39.87,39.87,0,0,0,7,7.67,34.53,34.53,0,0,0,8.61,5.4,22.73,22.73,0,0,0,9.16,2,39.72,39.72,0,0,0,7.12-.59,16.62,16.62,0,0,0,5.53-2,9.42,9.42,0,0,0,3.57-3.68,12.39,12.39,0,0,0,1.24-5.89,10.77,10.77,0,0,0-3.44-8.14,37.58,37.58,0,0,0-8.62-5.93c-3.44-1.79-7.17-3.51-11.16-5.17a77.48,77.48,0,0,1-11.17-5.71,32.59,32.59,0,0,1-8.62-7.6,17,17,0,0,1-3.45-10.82q0-11.16,6.78-16.21T671.44,84a44.21,44.21,0,0,1,6.89.54q3.31.52,6.3,1.25T690.21,87a24.86,24.86,0,0,0,4.87.53h4.28c-.08,1.35-.16,2.61-.24,3.8s-.12,2.42-.12,3.69q0,3.45.3,7.12c.2,2.46.37,4.84.53,7.13Z" transform="translate(-29.5 -84)"/><path d="M720.74,85.79l10.81.47c3.57.16,7.17.25,10.82.25,3.49,0,6.91-.09,10.28-.25l10.28-.47v2.85a27.85,27.85,0,0,0-6.72.89,9.55,9.55,0,0,0-4.16,2.26A8,8,0,0,0,750,95.71a25.48,25.48,0,0,0-.6,6v50.38c0,3.09,1,5.35,3,6.77s5.39,2.26,10.22,2.49l-.24,2.86c-3.49-.16-6.93-.28-10.34-.35s-6.85-.12-10.33-.12-7.14,0-10.7.12-7.13.19-10.69.35v-2.86q7.25-.34,10.22-2.49t3-6.77V101.71q0-7-2.68-9.92t-10-3.15Z" transform="translate(-29.5 -84)"/><path d="M851.92,111.57a44.5,44.5,0,0,0-3.74-8.61,29.19,29.19,0,0,0-5.58-7.13A25,25,0,0,0,834.88,91a28,28,0,0,0-10.41-1.79,26,26,0,0,0-12.89,3,26.82,26.82,0,0,0-8.91,8,35,35,0,0,0-5.17,11.41,54.19,54.19,0,0,0,0,26.62,35,35,0,0,0,5.17,11.41,26.68,26.68,0,0,0,8.91,8,26,26,0,0,0,12.89,3,25,25,0,0,0,9.45-1.95,22.65,22.65,0,0,0,7.9-5.17V141.75a12.58,12.58,0,0,0-.59-4.15,5.73,5.73,0,0,0-2-2.73,11.09,11.09,0,0,0-3.86-1.73,45.78,45.78,0,0,0-6.24-1.13v-2.85c2.69.16,5.64.29,8.86.42s6.74.17,10.62.17,7.34-.05,10.59-.17,6.17-.26,8.78-.42V132c-3.56.16-6.16,1-7.78,2.44a7.09,7.09,0,0,0-2.43,5.52V158q-4.63,1.42-8.74,2.86c-2.73.94-5.42,1.8-8.08,2.55a79.49,79.49,0,0,1-8,1.84,49.73,49.73,0,0,1-8.55.71,58.17,58.17,0,0,1-18.48-2.79,42.15,42.15,0,0,1-14.44-8,35.39,35.39,0,0,1-9.38-12.89A43,43,0,0,1,778.73,125a43,43,0,0,1,3.33-17.29,35.39,35.39,0,0,1,9.38-12.89,42.31,42.31,0,0,1,14.44-8A58.17,58.17,0,0,1,824.36,84a62.18,62.18,0,0,1,14.14,1.6c4.59,1.07,9.15,2,13.66,2.79q0,3.21.18,6.07c.12,1.89.3,3.76.53,5.58s.54,3.68.89,5.58.81,3.88,1.37,5.94Z" transform="translate(-29.5 -84)"/><path d="M876.16,160.7a65.71,65.71,0,0,0,8.79-1.78,9.81,9.81,0,0,0,4.87-2.91,10,10,0,0,0,2.14-5.17,60.47,60.47,0,0,0,.48-8.56l.47-46.22A17.21,17.21,0,0,0,889.4,93a22.82,22.82,0,0,0-4.1-2.2,43,43,0,0,0-4.39-1.55c-1.51-.43-3-.85-4.51-1.25V85.14l6.23.47q3.15.24,6.24.24,8.21,0,16.16-.71,11.88,14.73,24.06,28.75T952.56,143h.24v-9.62q0-5.82-.18-12.06t-.54-12.13A89.44,89.44,0,0,0,951,99.27a14.78,14.78,0,0,0-1.61-5A9.84,9.84,0,0,0,946.5,91a13.57,13.57,0,0,0-4.1-1.91A50.57,50.57,0,0,0,937.23,88V85.14l8.38.47q4.21.24,8.37.24,8.32,0,16.52-.71V88a24.14,24.14,0,0,0-7.36,1.31,7.78,7.78,0,0,0-4.1,3.57,17.75,17.75,0,0,0-1.79,6.71q-.4,4.23-.41,10.75v54.54h-7q-3.57-5.46-8.08-11.64T932.3,140.8q-4.92-6.24-10-12.3t-9.69-11.4q-4.62-5.35-8.55-9.8T897.43,100v40.28a77.38,77.38,0,0,0,.47,9.68,12.08,12.08,0,0,0,2.08,5.76,9.22,9.22,0,0,0,4.7,3.15A55.61,55.61,0,0,0,913,160.7v2.85q-4.4-.23-8.67-.35c-2.85-.08-5.75-.12-8.68-.12q-5,0-9.74.12c-3.17.08-6.41.2-9.74.35Z" transform="translate(-29.5 -84)"/></svg>